<svg xmlns="http://www.w3.org/2000/svg" viewBox="0 0 40 40"><g><path fill="#4285F4" d="M36.4 20.2c0-1.4-.1-2.4-.3-3.5H20v6.4h9.3c-.2 1.6-1.5 4.1-4.3 5.8l-.1.8 6.2 4.8.4.1c3.6-3.3 5.7-8.1 5.7-14.4z"/><path fill="#34A853" d="M20 37c5.1 0 9.3-1.7 12.4-4.8l-5.9-4.7c-1.6 1.1-3.7 1.9-6.5 1.9-5 0-9.2-3.3-10.7-7.9l-.8.1-5.8 4.5-.1.7C6.5 33.7 12.7 37 20 37z"/><path fill="#FBBC05" d="M9.3 21.4c-.4-1.1-.7-2.2-.7-3.4s.3-2.3.6-3.4l-.1-.8-5.9-4.6-.7.3C2.8 12.5 2 15.1 2 18c0 2.9.8 5.5 2.2 7.9l6.5-4.5z"/><path fill="#EA4335" d="M20 10.7c3.5 0 5.8 1.5 7.1 2.8l5.2-5.1C29.2 5.8 25.1 4 20 4 12.7 4 6.5 7.3 3.2 12.1l6.6 5.1c1.5-4.6 5.7-6.5 10.2-6.5z"/></g></svg>
