<?xml version="1.0" encoding="UTF-8"?><svg xmlns="http://www.w3.org/2000/svg" xmlns:xlink="http://www.w3.org/1999/xlink" xmlns:serif="http://www.serif.com/" width="100%" height="100%" viewBox="0 0 120 120" version="1.2" xml:space="preserve" baseProfile="tiny-ps" fill-rule="evenodd" stroke-linejoin="round" stroke-miterlimit="2"><title>splitspace-logomark</title><g transform="matrix(2,0,0,2,93.254,-1)"><path d="M0,61.013C0,51.91 -7.379,44.531 -16.482,44.531C-25.585,44.531 -32.965,51.91 -32.965,61.013L0,61.013ZM-32.965,0C-32.965,9.103 -25.585,16.482 -16.482,16.482C-7.379,16.482 0,9.103 0,0L-32.965,0ZM-47.127,47.852C-37.551,47.852 -29.788,40.09 -29.788,30.514C-29.788,20.938 -37.551,13.175 -47.127,13.175L-47.127,47.852ZM13.537,47.852C3.961,47.852 -3.802,40.09 -3.802,30.514C-3.802,20.938 3.961,13.175 13.537,13.175L13.537,47.852Z" fill="rgb(107,0,39)" fill-rule="nonzero"></path></g><g transform="matrix(0,-2,-2,0,60.2894,45.5534)"><path d="M-7.237,-7.237C-11.234,-7.237 -14.474,-3.997 -14.474,0C-14.474,3.997 -11.234,7.237 -7.237,7.237C-3.24,7.237 0,3.997 0,0C0,-3.997 -3.24,-7.237 -7.237,-7.237" fill="rgb(252,98,77)" fill-rule="nonzero"></path></g></svg>