<?xml version="1.0" encoding="UTF-8" standalone="no"?>
<!DOCTYPE svg PUBLIC "-//W3C//DTD SVG 1.1//EN" "http://www.w3.org/Graphics/SVG/1.1/DTD/svg11.dtd">
<svg width="100%" height="100%" viewBox="0 0 769 100" version="1.1" xmlns="http://www.w3.org/2000/svg" xmlns:xlink="http://www.w3.org/1999/xlink" xml:space="preserve" xmlns:serif="http://www.serif.com/" style="fill-rule:evenodd;clip-rule:evenodd;stroke-linejoin:round;stroke-miterlimit:2;">
    <g transform="matrix(1.31162,0,0,1.31162,61.8128,9.59865)">
        <path d="M0,61.013C0,51.91 -7.379,44.531 -16.482,44.531C-25.585,44.531 -32.965,51.91 -32.965,61.013L0,61.013ZM-32.965,0C-32.965,9.103 -25.585,16.482 -16.482,16.482C-7.379,16.482 0,9.103 0,0L-32.965,0ZM-47.127,47.852C-37.551,47.852 -29.788,40.09 -29.788,30.514C-29.788,20.938 -37.551,13.175 -47.127,13.175L-47.127,47.852ZM13.537,47.852C3.961,47.852 -3.802,40.09 -3.802,30.514C-3.802,20.938 3.961,13.175 13.537,13.175L13.537,47.852Z" style="fill:rgb(107,0,39);fill-rule:nonzero;"/>
    </g>
    <g transform="matrix(0,-1.31162,-1.31162,0,40.1943,40.1289)">
        <path d="M-7.237,-7.237C-11.234,-7.237 -14.474,-3.997 -14.474,0C-14.474,3.997 -11.234,7.237 -7.237,7.237C-3.24,7.237 0,3.997 0,0C0,-3.997 -3.24,-7.237 -7.237,-7.237" style="fill:rgb(252,98,77);fill-rule:nonzero;"/>
    </g>
    <g transform="matrix(0,-1.31162,-1.31162,0,306.194,0)">
        <path d="M-7.237,-7.237C-11.234,-7.237 -14.474,-3.997 -14.474,0C-14.474,3.997 -11.234,7.237 -7.237,7.237C-3.24,7.237 0,3.997 0,0C0,-3.997 -3.24,-7.237 -7.237,-7.237" style="fill:rgb(108,0,39);fill-rule:nonzero;"/>
    </g>
    <g transform="matrix(1,0,0,1,-4084.68,674.09)">
        <g transform="matrix(1,0,0,1,4,0)">
            <path d="M4243.83,-662.592L4243.83,-642.247C4235.98,-649.137 4227.53,-652.583 4218.49,-652.583C4210.47,-652.583 4206.45,-650.225 4206.45,-645.511C4206.45,-644.277 4206.73,-643.28 4207.29,-642.519C4207.84,-641.757 4208.84,-641.013 4210.3,-640.288C4212.68,-639.2 4217.46,-637.677 4224.63,-635.719C4230.69,-634.195 4235.51,-632.164 4239.1,-629.626C4244.73,-625.781 4247.54,-620.45 4247.54,-613.632C4247.54,-606.089 4244.56,-599.96 4238.58,-595.245C4232.61,-590.53 4224.76,-588.173 4215.03,-588.173C4207.52,-588.173 4200.27,-589.66 4193.27,-592.634C4191.39,-593.432 4189.3,-594.52 4187,-595.898L4187,-616.243C4194.25,-608.12 4203.04,-604.058 4213.37,-604.058C4217.04,-604.058 4219.98,-604.729 4222.2,-606.071C4224.42,-607.412 4225.53,-609.244 4225.53,-611.565C4225.53,-613.959 4224.38,-615.699 4222.07,-616.787C4220.62,-617.658 4216.29,-619.072 4209.08,-621.031C4201.87,-622.989 4196.47,-625.201 4192.89,-627.667C4186.83,-631.802 4183.8,-637.641 4183.8,-645.184C4183.8,-652.728 4186.76,-658.748 4192.69,-663.245C4198.62,-667.742 4206.71,-669.991 4216.95,-669.991C4225.14,-669.991 4232.44,-668.467 4238.84,-665.421C4239.1,-665.276 4239.78,-664.913 4240.89,-664.333C4242,-663.753 4242.98,-663.172 4243.83,-662.592Z" style="fill:rgb(252,98,77);fill-rule:nonzero;"/>
        </g>
        <g transform="matrix(1,0,0,1,2,0)">
            <path d="M4259.45,-574.355L4259.45,-655.629L4280.18,-655.629L4280.18,-649.319C4280.18,-647.868 4279.8,-644.967 4279.03,-640.615L4279.93,-640.506C4282.74,-651.748 4290.89,-657.37 4304.38,-657.37C4322.98,-657.37 4332.28,-646.78 4332.28,-625.6C4332.28,-613.995 4329.57,-604.874 4324.15,-598.237C4318.73,-591.6 4311.33,-588.282 4301.94,-588.282C4290.76,-588.282 4283.9,-592.561 4281.34,-601.12L4280.31,-600.903C4280.65,-599.234 4280.95,-597.457 4281.21,-595.571C4281.46,-593.685 4281.59,-591.945 4281.59,-590.349L4281.59,-574.355L4259.45,-574.355ZM4296.06,-639.853C4285.64,-639.853 4280.44,-633.796 4280.44,-621.683C4280.44,-616.098 4281.72,-611.674 4284.28,-608.41C4285.56,-606.887 4287.1,-605.726 4288.89,-604.928C4290.68,-604.13 4292.81,-603.731 4295.29,-603.731C4305.53,-603.731 4310.65,-610.296 4310.65,-623.424C4310.65,-634.377 4305.78,-639.853 4296.06,-639.853Z" style="fill:rgb(252,98,77);fill-rule:nonzero;"/>
        </g>
        <rect x="4344.57" y="-671.731" width="22.4" height="81.6" style="fill:rgb(252,98,77);fill-rule:nonzero;"/>
        <g transform="matrix(1,0,0,0.908241,0,-59.5992)">
            <path d="M4379.9,-584.131L4379.9,-649.52C4381.86,-649.303 4383.8,-649.121 4385.72,-648.976C4387.64,-648.831 4389.41,-648.759 4391.03,-648.759C4394.53,-648.759 4398.2,-649.012 4402.04,-649.52L4402.04,-584.131L4379.9,-584.131Z" style="fill:rgb(252,98,77);fill-rule:nonzero;"/>
        </g>
        <path d="M4407.67,-639.418L4407.67,-650.951C4410.49,-651.458 4412.94,-652.184 4415.03,-653.127C4417.12,-654.069 4419.06,-655.375 4420.86,-657.043C4424.18,-660.09 4427.55,-665.058 4430.97,-671.949L4442.49,-671.949L4442.36,-655.629L4467.83,-655.629L4467.83,-639.418L4441.46,-639.418L4441.46,-614.829C4441.46,-611.492 4441.55,-609.534 4441.72,-608.954C4442.49,-604.892 4445.52,-602.861 4450.81,-602.861C4456.18,-602.861 4461.18,-605.182 4465.78,-609.824L4465.78,-595.136L4462.33,-592.96C4457.04,-590.131 4450.94,-588.717 4444.02,-588.717C4438.48,-588.717 4433.57,-589.805 4429.3,-591.981C4422.9,-595.245 4419.7,-601.265 4419.7,-610.042L4419.7,-610.803L4420.22,-639.418L4407.67,-639.418Z" style="fill:rgb(252,98,77);fill-rule:nonzero;"/>
        <g transform="matrix(1,0,0,1,-1,0)">
            <path d="M4541.72,-662.592L4541.72,-642.247C4533.87,-649.137 4525.42,-652.583 4516.38,-652.583C4508.35,-652.583 4504.34,-650.225 4504.34,-645.511C4504.34,-644.277 4504.62,-643.28 4505.18,-642.519C4505.73,-641.757 4506.73,-641.013 4508.18,-640.288C4510.57,-639.2 4515.35,-637.677 4522.52,-635.719C4528.58,-634.195 4533.4,-632.164 4536.98,-629.626C4542.61,-625.781 4545.43,-620.45 4545.43,-613.632C4545.43,-606.089 4542.44,-599.96 4536.47,-595.245C4530.5,-590.53 4522.65,-588.173 4512.92,-588.173C4505.41,-588.173 4498.16,-589.66 4491.16,-592.634C4489.28,-593.432 4487.19,-594.52 4484.89,-595.898L4484.89,-616.243C4492.14,-608.12 4500.93,-604.058 4511.26,-604.058C4514.92,-604.058 4517.87,-604.729 4520.09,-606.071C4522.31,-607.412 4523.41,-609.244 4523.41,-611.565C4523.41,-613.959 4522.26,-615.699 4519.96,-616.787C4518.51,-617.658 4514.18,-619.072 4506.97,-621.031C4499.76,-622.989 4494.36,-625.201 4490.78,-627.667C4484.72,-631.802 4481.69,-637.641 4481.69,-645.184C4481.69,-652.728 4484.65,-658.748 4490.58,-663.245C4496.51,-667.742 4504.6,-669.991 4514.84,-669.991C4523.03,-669.991 4530.33,-668.467 4536.73,-665.421C4536.98,-665.276 4537.66,-664.913 4538.78,-664.333C4539.88,-663.753 4540.86,-663.172 4541.72,-662.592Z" style="fill:rgb(252,98,77);fill-rule:nonzero;"/>
        </g>
        <g transform="matrix(1,0,0,1,-3,0)">
            <path d="M4557.34,-574.355L4557.34,-655.629L4578.07,-655.629L4578.07,-649.319C4578.07,-647.868 4577.69,-644.967 4576.92,-640.615L4577.82,-640.506C4580.63,-651.748 4588.78,-657.37 4602.26,-657.37C4620.86,-657.37 4630.17,-646.78 4630.17,-625.6C4630.17,-613.995 4627.46,-604.874 4622.04,-598.237C4616.62,-591.6 4609.22,-588.282 4599.83,-588.282C4588.65,-588.282 4581.78,-592.561 4579.22,-601.12L4578.2,-600.903C4578.54,-599.234 4578.84,-597.457 4579.1,-595.571C4579.35,-593.685 4579.48,-591.945 4579.48,-590.349L4579.48,-574.355L4557.34,-574.355ZM4593.94,-639.853C4583.53,-639.853 4578.33,-633.796 4578.33,-621.683C4578.33,-616.098 4579.61,-611.674 4582.17,-608.41C4583.45,-606.887 4584.98,-605.726 4586.78,-604.928C4588.57,-604.13 4590.7,-603.731 4593.18,-603.731C4603.41,-603.731 4608.53,-610.296 4608.53,-623.424C4608.53,-634.377 4603.67,-639.853 4593.94,-639.853Z" style="fill:rgb(252,98,77);fill-rule:nonzero;"/>
        </g>
        <g transform="matrix(1,0,0,1,-5,0)">
            <path d="M4643.48,-630.496L4643.48,-647.251L4648.09,-650.733C4655.26,-655.085 4664.34,-657.261 4675.35,-657.261C4685.25,-657.261 4693.02,-655.194 4698.65,-651.059C4703,-647.795 4705.18,-642.936 4705.18,-636.48L4705.18,-590.131L4683.93,-590.131L4684.06,-593.395C4684.06,-595.716 4684.69,-598.291 4685.98,-601.12L4684.82,-601.229C4680.73,-592.67 4673.26,-588.391 4662.42,-588.391C4655.85,-588.391 4650.48,-590.023 4646.3,-593.287C4642.11,-596.551 4640.02,-600.866 4640.02,-606.234C4640.02,-610.368 4641.26,-613.813 4643.73,-616.57C4646.21,-619.326 4649.79,-621.611 4654.49,-623.424C4656.79,-624.295 4660.89,-625.346 4666.78,-626.579C4672.66,-627.812 4676.95,-629.027 4679.64,-630.224C4682.33,-631.421 4683.67,-633.071 4683.67,-635.175C4683.67,-639.672 4679.74,-641.92 4671.9,-641.92C4668.57,-641.92 4664.6,-641.267 4659.99,-639.962C4656.41,-639.019 4652.82,-637.387 4649.24,-635.066L4643.48,-630.496ZM4683.8,-612.327L4683.8,-620.269C4682.35,-619.326 4680.39,-618.419 4677.91,-617.549L4674.2,-616.352L4670.87,-615.373C4664.98,-613.632 4662.04,-611.021 4662.04,-607.539C4662.04,-605.653 4662.78,-604.148 4664.28,-603.024C4665.77,-601.9 4667.71,-601.338 4670.1,-601.338C4674.62,-601.338 4678.42,-603.115 4681.49,-606.669C4683.03,-608.555 4683.8,-610.441 4683.8,-612.327Z" style="fill:rgb(252,98,77);fill-rule:nonzero;"/>
        </g>
        <g transform="matrix(1,0,0,1,-7,0)">
            <path d="M4779.41,-649.863L4779.41,-630.605C4772.67,-636.553 4765.38,-639.527 4757.53,-639.527C4751.81,-639.527 4747.37,-638.021 4744.22,-635.011C4741.06,-632.001 4739.48,-627.704 4739.48,-622.119C4739.48,-616.679 4741.08,-612.381 4744.28,-609.226C4747.48,-606.071 4751.85,-604.493 4757.4,-604.493C4765.42,-604.493 4772.67,-608.12 4779.16,-615.373L4779.16,-599.053C4773.02,-592.09 4764.23,-588.608 4752.79,-588.608C4741.95,-588.608 4733.38,-591.763 4727.06,-598.074C4720.75,-604.384 4717.59,-612.907 4717.59,-623.642C4717.59,-634.377 4720.75,-642.772 4727.06,-648.829C4733.38,-654.885 4742.17,-657.914 4753.43,-657.914C4763.33,-657.914 4771.99,-655.23 4779.41,-649.863Z" style="fill:rgb(252,98,77);fill-rule:nonzero;"/>
        </g>
        <g transform="matrix(1,0,0,1,-6,0)">
            <path d="M4858.26,-617.114L4811.16,-617.114C4811.16,-612.689 4812.91,-609.117 4816.41,-606.397C4819.9,-603.677 4824.6,-602.317 4830.49,-602.317C4834.16,-602.317 4837.53,-602.788 4840.6,-603.731C4843.84,-604.602 4846.78,-606.016 4849.43,-607.975C4851.05,-609.135 4852.76,-610.731 4854.55,-612.762L4854.55,-597.747C4847.04,-591.509 4837.36,-588.391 4825.49,-588.391C4814.06,-588.391 4805.12,-591.455 4798.68,-597.584C4792.24,-603.713 4789.02,-612.327 4789.02,-623.424C4789.02,-634.304 4792.15,-642.7 4798.42,-648.611C4804.69,-654.523 4813.68,-657.479 4825.37,-657.479C4833.3,-657.479 4839.79,-656.137 4844.82,-653.453C4854.12,-648.376 4858.78,-639.273 4858.78,-626.144L4858.78,-621.031C4858.52,-619.29 4858.35,-617.984 4858.26,-617.114ZM4826.65,-641.811C4817.69,-641.811 4812.4,-637.967 4810.78,-630.279L4842.01,-630.279C4842.01,-633.833 4840.62,-636.643 4837.85,-638.711C4835.07,-640.778 4831.34,-641.811 4826.65,-641.811Z" style="fill:rgb(252,98,77);fill-rule:nonzero;"/>
        </g>
    </g>
</svg>
